<svg width="42" height="42" viewBox="0 0 42 42" fill="none" xmlns="http://www.w3.org/2000/svg">
<path d="M21.0094 41.9441C32.5919 41.9441 41.9814 32.5546 41.9814 20.972C41.9814 9.38949 32.5919 0 21.0094 0C9.42686 0 0.0373535 9.38949 0.0373535 20.972C0.0373535 32.5546 9.42686 41.9441 21.0094 41.9441Z" fill="#373C59"/>
<path d="M32.592 13.776C31.8348 14.1023 31.0374 14.3256 30.2209 14.4399C30.6003 14.4399 31.1456 13.7049 31.4064 13.4322C31.7493 13.0187 32.0108 12.544 32.1771 12.0333C32.1771 12.0333 32.1771 11.9384 32.1771 11.9147C32.1572 11.9033 32.1347 11.8973 32.1118 11.8973C32.0889 11.8973 32.0664 11.9033 32.0466 11.9147C31.1799 12.3733 30.2602 12.7237 29.308 12.958C29.2796 12.9759 29.2468 12.9854 29.2132 12.9854C29.1797 12.9854 29.1468 12.9759 29.1184 12.958C29.0455 12.8694 28.9662 12.7862 28.8813 12.709C28.4872 12.3675 28.0383 12.095 27.5535 11.9029C26.9089 11.6349 26.2107 11.5213 25.5144 11.5709C24.8389 11.6202 24.1804 11.8064 23.5792 12.1182C22.9779 12.43 22.4464 12.861 22.0171 13.3848C21.5734 13.9327 21.2575 14.5726 21.0923 15.2579C20.962 15.9075 20.962 16.5764 21.0923 17.2259C21.0923 17.3326 21.0923 17.3445 20.9975 17.3326C17.3769 16.9737 14.0185 15.2839 11.5725 12.5905C11.4659 12.4601 11.4065 12.4601 11.3236 12.5905C10.8251 13.4926 10.6342 14.5326 10.7796 15.553C10.9251 16.5733 11.3991 17.5185 12.1297 18.2455L12.7106 18.7553C12.0795 18.6998 11.4644 18.5269 10.8968 18.2455C10.7782 18.1743 10.7308 18.2455 10.7189 18.3403C10.7015 18.5177 10.7015 18.6964 10.7189 18.8738C10.8311 19.7231 11.1668 20.5273 11.6917 21.2042C12.2166 21.8812 12.9119 22.4066 13.7065 22.7268C13.8994 22.8148 14.1025 22.8785 14.3111 22.9165C13.718 23.0097 13.114 23.0097 12.521 22.9165C12.3905 22.9165 12.3431 22.9165 12.3906 23.0824C12.695 23.8822 13.1991 24.5908 13.8549 25.1407C14.5106 25.6907 15.2962 26.0636 16.1368 26.2241C16.3082 26.2355 16.4786 26.2592 16.6466 26.2952C15.9191 26.9548 15.0392 27.4232 14.0859 27.6586C12.8403 28.1013 11.5142 28.2711 10.1973 28.1565C9.9839 28.1565 9.94832 28.1565 9.88904 28.1565C9.82977 28.1565 9.8891 28.2395 9.94838 28.2988C10.2092 28.4648 10.4819 28.6189 10.7545 28.773C11.5797 29.2137 12.4502 29.5635 13.3508 29.8163C15.6622 30.5062 18.1135 30.5815 20.4628 30.0347C22.8121 29.488 24.9782 28.338 26.7473 26.6983C28.0198 25.3165 29.0035 23.6945 29.6407 21.9274C30.2779 20.1603 30.5557 18.2838 30.458 16.4079C30.458 16.2656 30.6359 16.1826 30.7426 16.0997C31.4386 15.5578 32.0534 14.919 32.5682 14.2028C32.6477 14.097 32.6895 13.9676 32.6868 13.8353C32.6868 13.8353 32.6868 13.7405 32.592 13.776Z" fill="white"/>
</svg>
