<svg width="42" height="42" viewBox="0 0 42 42" fill="none" xmlns="http://www.w3.org/2000/svg">
<path d="M21.0279 41.9441C32.6105 41.9441 42 32.5546 42 20.972C42 9.3895 32.6105 0 21.0279 0C9.44541 0 0.0559082 9.3895 0.0559082 20.972C0.0559082 32.5546 9.44541 41.9441 21.0279 41.9441Z" fill="#373C59"/>
<path d="M32.2551 18.0199C32.2551 16.6837 31.7242 15.4021 30.7793 14.4572C29.8344 13.5123 28.5529 12.9814 27.2166 12.9814H14.3417C13.0054 12.9814 11.7238 13.5123 10.7789 14.4572C9.83401 15.4021 9.30322 16.6837 9.30322 18.0199V23.9476C9.30322 25.2839 9.83401 26.5655 10.7789 27.5104C11.7238 28.4553 13.0054 28.9861 14.3417 28.9861H27.2166C28.5529 28.9861 29.8344 28.4553 30.7793 27.5104C31.7242 26.5655 32.2551 25.2839 32.2551 23.9476V18.0199ZM24.6795 21.458L18.906 24.3151C18.6807 24.4455 17.9101 24.3151 17.9101 24.0187V18.1503C17.9101 17.8895 18.6926 17.7236 18.9179 17.854L24.4424 20.8652C24.6795 20.9601 24.9166 21.292 24.6795 21.4224V21.458Z" fill="white"/>
</svg>
